<svg id="Layer_1" data-name="Layer 1" xmlns="http://www.w3.org/2000/svg" viewBox="0 0 80 80"><defs><style>.cls-1{fill:#606060;}</style></defs><title>06-2link-share</title><path class="cls-1" d="M55.94,24.06a8.44,8.44,0,0,0-11.92,0h0l-5.2,5.2,2.4,2.4,5.2-5.2h0a5,5,0,0,1,7.12,7.12l-7.8,7.8a5,5,0,0,1-7.12,0l-2.4,2.4a8.43,8.43,0,0,0,11.92,0l7.8-7.8A8.44,8.44,0,0,0,55.94,24.06Z"/><path class="cls-1" d="M33.58,53.54h0a5,5,0,0,1-7.12-7.12l7.8-7.8a5,5,0,0,1,7.12,0l2.4-2.4a8.44,8.44,0,0,0-11.92,0L24.06,44A8.43,8.43,0,0,0,36,55.94h0l5.2-5.2-2.4-2.4Z"/></svg>