<svg id="Layer_1" data-name="Layer 1" xmlns="http://www.w3.org/2000/svg" viewBox="0 0 80 80"><defs><style>.cls-1{fill:#23a2f0;}</style></defs><title>06-4tw-share</title><path id="_Trazado_" data-name="&lt;Trazado&gt;" class="cls-1" d="M66,24.13a22,22,0,0,1-5.68,1.45,10.69,10.69,0,0,0,4.61-5.47.17.17,0,0,0-.24-.2,21.81,21.81,0,0,1-6.48,2.37,10.87,10.87,0,0,0-7.9-3.36A10.65,10.65,0,0,0,39.75,32,30.88,30.88,0,0,1,17.52,20.93a.06.06,0,0,0-.1,0,10.54,10.54,0,0,0,3.2,14,.07.07,0,0,1,0,.12A10.93,10.93,0,0,1,16,33.79a.05.05,0,0,0-.08,0,14.37,14.37,0,0,0,.73,3.9,10.91,10.91,0,0,0,7.94,6.58,11.34,11.34,0,0,1-2.86.38,10.8,10.8,0,0,1-1.94-.18.06.06,0,0,0-.07.08,10.81,10.81,0,0,0,9.89,7.29.07.07,0,0,1,0,.12,21.89,21.89,0,0,1-13.29,4.45,22.55,22.55,0,0,1-2.57-.15,31,31,0,0,0,16.57,4.78,30.12,30.12,0,0,0,20.26-7.31A31.23,31.23,0,0,0,60.4,37.22a29.25,29.25,0,0,0,.74-6.43c0-.46,0-.92,0-1.38a21.77,21.77,0,0,0,5.06-5A.17.17,0,0,0,66,24.13Z"/></svg>