<svg id="Layer_1" data-name="Layer 1" xmlns="http://www.w3.org/2000/svg" viewBox="0 0 80 80"><defs><style>.cls-1{fill:#0077b5;}</style></defs><title>06-5ld-share</title><path class="cls-1" d="M61.72,45.16V61.42H52.29V46.25c0-3.81-1.36-6.41-4.78-6.41a5.16,5.16,0,0,0-4.84,3.45,6.46,6.46,0,0,0-.31,2.3V61.42H32.93s.13-25.71,0-28.37h9.43v4l-.06.09h.06v-.09a9.37,9.37,0,0,1,8.5-4.69c6.21,0,10.86,4.05,10.86,12.77ZM18.28,61.42h9.43V33.06H18.28Zm0,0,9.71-38a4.86,4.86,0,1,1-4.86-4.86A4.86,4.86,0,0,1,28,23.43Z"/></svg>