<svg id="Layer_1" data-name="Layer 1" xmlns="http://www.w3.org/2000/svg" viewBox="0 0 80 80"><defs><style>.cls-1{fill:#606060;}</style></defs><title>06-6mail-share</title><path class="cls-1" d="M63.71,25.22h0a6.93,6.93,0,0,0-4.57-1.72H20.88a6.93,6.93,0,0,0-4.57,1.72h0a6.94,6.94,0,0,0-2.38,5.22V49.56a6.94,6.94,0,0,0,2.38,5.22h0a6.92,6.92,0,0,0,4.57,1.72H59.12a6.92,6.92,0,0,0,4.57-1.72h0a6.94,6.94,0,0,0,2.37-5.22V30.44A6.94,6.94,0,0,0,63.71,25.22Zm-4.58.35a4.8,4.8,0,0,1,2.16.53L40,46.55,18.72,26.09a4.81,4.81,0,0,1,2.16-.53ZM16,30.44a4.81,4.81,0,0,1,1.08-3L30.18,40,17.09,52.58a4.82,4.82,0,0,1-1.08-3Zm4.87,24a4.8,4.8,0,0,1-2.16-.53l13-12.46,7.6,7.3a1,1,0,0,0,1.45,0l7.6-7.3,13,12.46a4.81,4.81,0,0,1-2.16.53ZM64,49.56a4.8,4.8,0,0,1-1.08,3L49.82,40,62.91,27.42a4.81,4.81,0,0,1,1.08,3Z"/></svg>